<?xml version="1.0" standalone="no"?>
<!DOCTYPE svg PUBLIC "-//W3C//DTD SVG 20010904//EN"
 "http://www.w3.org/TR/2001/REC-SVG-20010904/DTD/svg10.dtd">
<svg version="1.0" xmlns="http://www.w3.org/2000/svg"
 width="851.000000pt" height="637.000000pt" viewBox="0 0 851.000000 637.000000"
 preserveAspectRatio="xMidYMid meet">

<g transform="translate(0.000000,637.000000) scale(0.100000,-0.100000)"
fill="#000000" stroke="none">
<path d="M3861 6222 c-7 -12 -21 -14 -64 -9 -118 12 -481 -99 -807 -246 -242
-109 -543 -312 -752 -508 -243 -226 -478 -566 -611 -879 -218 -514 -279 -961
-206 -1490 28 -198 122 -509 221 -729 34 -76 144 -271 201 -356 122 -181 321
-425 475 -582 150 -152 463 -399 687 -540 139 -89 173 -106 263 -133 61 -18
71 -24 62 -36 -7 -7 -29 -18 -50 -24 -38 -10 -68 -34 -53 -43 4 -3 31 0 59 6
l51 10 197 -92 c176 -83 245 -110 458 -181 31 -10 87 -24 125 -30 37 -6 93
-15 123 -21 30 -5 87 -12 125 -15 39 -3 74 -10 79 -15 6 -5 111 -9 234 -9 135
0 231 -4 243 -10 11 -6 64 -9 121 -8 75 3 95 6 73 11 -22 6 -30 15 -31 33 -1
13 4 24 11 24 7 0 19 7 26 16 12 14 9 20 -16 40 -39 31 -29 38 26 17 79 -30
85 -46 44 -107 -29 -43 -30 -43 100 -16 54 11 100 19 102 17 2 -2 -36 -15 -84
-28 -69 -18 -81 -24 -58 -27 45 -6 55 -19 55 -77 0 -47 4 -56 31 -79 17 -14
37 -26 45 -26 11 0 14 -8 12 -27 -3 -25 0 -28 31 -31 21 -2 31 0 26 7 -3 6
-16 11 -28 12 -23 1 4 11 115 44 32 10 55 21 53 25 -5 9 66 40 91 40 8 0 12
-5 8 -11 -9 -14 5 -11 196 58 299 107 613 266 840 426 115 81 260 194 260 203
0 3 -12 3 -27 2 -22 -2 -28 1 -29 17 -2 45 -5 51 -33 68 -16 9 -43 17 -60 17
-26 0 -31 4 -31 24 0 14 11 33 25 44 14 11 25 27 25 35 0 8 23 29 51 46 40 25
49 35 44 51 -8 24 28 41 86 42 56 1 82 -11 76 -33 -3 -10 -1 -19 4 -19 5 0 9
6 9 13 0 14 67 87 81 87 5 0 9 7 9 15 0 8 8 15 18 15 10 0 33 16 52 35 19 19
57 49 86 67 30 18 55 41 58 54 8 29 74 87 93 80 8 -3 25 -6 39 -6 18 0 22 -4
17 -17 -3 -10 31 20 75 65 53 55 85 81 93 76 7 -4 3 8 -9 28 -29 47 -30 116 0
153 24 30 74 55 113 55 14 0 25 5 25 10 0 6 11 15 25 22 13 6 22 15 19 19 -3
5 0 9 5 9 18 0 12 19 -8 30 -16 8 -26 5 -51 -17 l-32 -27 -18 24 c-12 16 -24
21 -38 18 -21 -6 -21 -5 -7 23 18 34 19 69 3 105 -10 22 -10 28 6 40 18 13
116 171 116 187 0 5 -5 5 -12 1 -8 -5 -9 -2 -5 9 3 10 3 17 -1 17 -5 0 -28
-37 -52 -83 -146 -276 -215 -398 -283 -500 -32 -49 -61 -87 -63 -84 -3 3 9 36
26 73 17 38 53 123 80 189 103 258 223 505 255 527 19 14 47 8 52 -12 6 -22
18 -26 28 -9 4 5 18 14 31 19 14 6 30 25 39 48 18 44 66 76 131 87 l41 6 -3
-53 -4 -53 24 50 c31 66 99 269 126 373 11 46 39 133 62 195 37 100 41 122 41
202 1 145 -9 195 -51 256 l-37 54 0 160 c0 143 -2 166 -23 216 -12 30 -29 64
-37 75 -8 10 -4 -6 9 -36 14 -30 30 -89 37 -130 10 -64 10 -82 -3 -120 -17
-50 -9 -47 -127 -36 -43 4 -72 12 -85 25 -12 10 -41 22 -66 25 -122 18 -162 9
-199 -43 -12 -16 -41 -37 -66 -47 -43 -16 -46 -16 -65 1 -10 9 -20 27 -22 38
-2 13 -12 23 -23 25 -11 2 -31 16 -45 31 -14 16 -39 35 -56 44 -43 22 -59 44
-45 60 8 11 4 22 -17 50 -41 55 -120 117 -150 117 -23 0 -19 -7 50 -77 107
-112 189 -240 249 -391 17 -42 33 -79 35 -81 2 -2 2 16 0 40 -3 34 0 49 17 67
27 29 42 28 75 -5 17 -17 49 -32 91 -42 55 -13 67 -20 73 -41 3 -14 13 -47 20
-75 10 -35 21 -54 38 -62 36 -18 50 -42 50 -87 0 -54 6 -43 30 49 11 43 29 92
41 109 11 17 19 24 16 16 -2 -8 0 -23 5 -33 5 -9 9 -52 9 -94 1 -82 9 -104 37
-96 20 5 78 -50 68 -65 -3 -5 -16 -7 -29 -5 -36 7 -49 -16 -33 -60 17 -50 30
-62 46 -42 21 26 43 19 37 -12 -3 -18 1 -35 11 -46 14 -16 14 -19 2 -27 -24
-15 -56 -11 -83 10 -32 25 -42 25 -61 -1 -10 -15 -20 -19 -35 -14 -26 8 -26
13 -2 67 36 83 42 111 28 126 -12 11 -20 -2 -51 -76 -20 -49 -53 -116 -72
-148 -20 -32 -60 -106 -89 -164 -60 -117 -104 -179 -104 -145 0 11 19 70 43
130 24 61 47 119 51 130 5 14 -2 10 -23 -12 -17 -18 -35 -33 -40 -33 -5 0 -15
-14 -22 -30 -18 -44 -27 -45 -27 -1 0 23 -10 55 -25 81 l-26 42 -11 -69 c-7
-37 -24 -93 -39 -123 l-27 -55 -2 105 c-2 118 -24 400 -30 400 -7 0 -42 -44
-43 -52 0 -5 6 -8 14 -8 19 0 26 -23 26 -88 0 -39 -6 -67 -20 -90 -22 -36 -35
-35 -43 0 -3 13 -12 49 -21 82 -9 32 -14 66 -11 76 3 10 -4 25 -16 36 -21 19
-22 19 -16 -1 13 -42 56 -244 68 -318 14 -92 7 -301 -16 -449 -39 -261 -140
-545 -266 -756 -97 -160 -164 -248 -306 -401 -18 -19 -33 -41 -33 -47 0 -13
-128 -132 -200 -187 -236 -177 -370 -258 -547 -327 -209 -82 -607 -168 -1013
-219 -107 -14 -313 -14 -495 -1 -229 17 -251 21 -690 127 -60 15 -139 29 -175
32 -58 5 -65 9 -74 32 -14 41 2 80 54 131 56 54 121 78 212 78 94 0 202 -43
425 -172 99 -57 231 -108 276 -108 22 0 22 1 -3 20 -14 11 -62 45 -108 75 -46
31 -116 83 -155 118 -40 34 -94 78 -120 97 -201 147 -232 182 -302 346 -63
148 -61 294 8 433 62 127 184 215 342 248 169 34 383 -21 623 -162 l44 -26
-21 30 c-64 90 -249 214 -397 267 -180 65 -377 56 -502 -21 -32 -19 -62 -35
-68 -35 -12 0 -89 -80 -130 -135 -103 -137 -139 -259 -139 -465 0 -118 4 -161
23 -232 12 -47 22 -89 22 -91 0 -3 -26 -22 -58 -42 -32 -21 -68 -54 -81 -73
-12 -18 -25 -32 -27 -29 -3 3 -12 65 -20 138 -8 74 -19 157 -24 184 -5 28 -19
113 -30 190 -11 77 -32 196 -46 265 -67 323 -97 706 -77 987 15 201 25 233 78
249 22 7 62 21 89 33 51 23 223 60 391 86 169 25 236 51 102 39 -78 -7 -200 6
-362 37 -78 16 -129 34 -230 83 -312 151 -518 375 -561 611 -26 140 -10 418
31 561 19 65 94 226 147 317 26 43 78 107 132 160 l89 88 -7 64 c-3 34 -15 87
-25 116 -19 56 -84 174 -102 184 -34 21 -85 -111 -133 -345 -19 -96 -43 -200
-53 -230 l-18 -55 -3 45 c-8 102 46 470 88 599 45 140 77 201 106 201 28 0
203 -129 285 -210 94 -93 149 -170 149 -208 0 -20 4 -23 23 -18 194 53 431 62
517 18 l45 -22 25 29 c14 15 54 66 90 111 98 124 317 310 445 379 l39 21 26
-25 c134 -129 329 -682 360 -1024 6 -58 17 -135 25 -171 17 -75 20 -311 5
-341 -8 -15 -22 -19 -61 -19 -97 0 -234 -48 -247 -87 -5 -17 66 -17 193 2 152
22 395 19 395 -5 0 -11 -100 -28 -208 -36 -87 -6 -93 -8 -97 -30 -17 -81 -14
-77 -48 -70 -166 30 -248 38 -262 26 -45 -37 61 -84 234 -105 126 -14 217 -37
247 -61 17 -14 12 -15 -61 -10 -44 3 -105 8 -136 12 l-56 6 -7 -41 c-8 -49
-20 -51 -99 -16 -56 24 -162 55 -191 55 -22 0 -20 -23 4 -45 10 -9 88 -52 171
-94 84 -42 154 -82 157 -89 6 -18 -29 -15 -83 9 l-47 21 -81 -80 c-87 -84
-205 -166 -344 -237 -47 -24 -90 -46 -97 -48 -51 -19 104 -11 165 8 13 5 17
-7 22 -69 13 -175 100 -265 415 -430 353 -185 499 -321 635 -592 47 -94 98
-244 118 -354 7 -36 13 -139 13 -230 0 -140 -3 -177 -22 -241 -28 -101 -56
-145 -105 -170 -30 -16 -37 -23 -26 -30 56 -35 330 31 523 127 49 25 128 72
175 106 93 67 283 251 348 338 90 120 196 335 257 525 51 159 69 419 41 590
-29 177 -55 237 -203 470 -124 193 -159 241 -213 289 -96 84 -235 226 -309
313 -136 161 -208 299 -270 521 -26 90 -30 123 -30 226 0 156 23 255 94 401
67 137 202 301 264 320 33 10 28 -7 -24 -77 -55 -75 -117 -202 -139 -283 -9
-33 -18 -96 -21 -140 l-5 -80 45 113 c54 137 76 175 161 280 77 95 158 166
251 218 108 61 172 77 309 78 190 2 284 -32 391 -138 115 -116 164 -216 164
-336 -1 -98 -28 -175 -50 -140 -5 8 -10 23 -10 32 0 9 -5 29 -12 45 l-11 28
-6 -30 c-8 -38 -48 -54 -91 -38 -41 15 -51 -4 -16 -30 37 -26 56 -68 56 -119
-1 -62 -43 -107 -102 -109 l-23 0 22 -9 c24 -10 43 -39 43 -68 0 -24 -30 -52
-57 -52 -26 0 -90 -26 -98 -41 -4 -6 0 -18 8 -27 15 -14 15 -13 10 6 -6 24 4
27 101 36 160 14 300 153 362 361 26 87 24 239 -5 325 -49 144 -144 267 -275
354 -152 101 -243 129 -426 129 -199 1 -428 -56 -621 -154 -98 -50 -115 -57
-104 -39 4 7 -2 9 -19 4 -22 -5 -34 2 -82 49 -30 31 -83 78 -116 104 -33 26
-79 64 -103 84 -23 20 -60 47 -81 59 -22 13 -61 41 -89 61 -27 21 -77 52 -111
71 -34 18 -88 48 -120 66 -65 37 -180 82 -198 78 -6 -2 -7 -1 -2 2 13 7 -38
27 -209 84 -168 56 -302 91 -316 83 -5 -4 -37 1 -71 9 -35 8 -139 19 -233 25
-251 15 -307 26 -383 78 -65 43 -85 49 -185 56 -44 3 -60 0 -66 -11z m-2 -75
c5 -12 7 -25 4 -29 -8 -14 -56 -8 -75 9 -24 22 -23 42 5 52 27 11 55 -3 66
-32z m701 -167 c0 -16 -5 -30 -10 -30 -14 0 -24 26 -16 45 10 26 26 16 26 -15z
m-410 4 c0 -17 -22 -14 -28 4 -2 7 3 12 12 12 9 0 16 -7 16 -16z m180 -14 c0
-11 -7 -20 -15 -20 -8 0 -15 9 -15 20 0 11 7 20 15 20 8 0 15 -9 15 -20z
m-910 0 c0 -5 -10 -10 -22 -9 -22 0 -22 1 -3 9 11 5 21 9 23 9 1 1 2 -3 2 -9z
m585 -15 c31 -30 31 -52 3 -82 -28 -30 -52 -29 -72 2 -23 34 -20 71 6 89 30
21 35 20 63 -9z m810 -15 c15 -16 15 -22 5 -35 -17 -20 -26 -19 -51 6 -16 16
-18 23 -8 35 16 19 33 18 54 -6z m150 -39 c-5 -15 -13 -21 -28 -19 -28 4 -35
38 -11 55 25 18 49 -5 39 -36z m-688 -47 c14 -22 14 -26 -1 -49 -19 -29 -33
-31 -58 -8 -20 18 -24 63 -7 80 15 15 48 4 66 -23z m-817 3 c0 -36 -53 -50
-70 -18 -8 16 -6 20 8 24 35 9 62 7 62 -6z m-170 -48 c7 -11 9 -23 6 -26 -6
-6 -55 29 -56 40 0 16 40 6 50 -14z m511 -17 c19 -20 47 -46 64 -56 l29 -19
-24 -16 c-41 -26 -90 -81 -90 -101 0 -34 -19 -31 -36 5 -9 20 -34 51 -56 70
l-40 34 19 25 c10 14 21 26 26 26 4 0 7 5 7 12 0 16 40 58 56 58 6 0 27 -17
45 -38z m1513 3 c7 -20 -23 -32 -35 -14 -13 21 -11 29 10 29 10 0 22 -7 25
-15z m-937 -111 c-9 -9 -28 6 -21 18 4 6 10 6 17 -1 6 -6 8 -13 4 -17z m-847
-25 c0 -5 -7 -9 -15 -9 -15 0 -20 12 -9 23 8 8 24 -1 24 -14z m1911 -5 c7 -15
38 -48 68 -75 49 -44 59 -69 27 -69 -8 0 -38 -22 -67 -50 -29 -27 -56 -50 -59
-50 -3 0 -18 20 -35 45 -17 25 -47 53 -68 64 l-37 19 29 11 c16 7 48 39 72 72
23 32 45 59 49 59 4 0 13 -12 21 -26z m-979 -9 c0 -5 -5 -11 -11 -13 -6 -2
-11 4 -11 13 0 9 5 15 11 13 6 -2 11 -8 11 -13z m-317 -26 c14 -43 -38 -65
-69 -30 -20 22 -14 39 18 50 27 11 44 4 51 -20z m1053 3 c2 -7 -6 -12 -17 -12
-21 0 -27 11 -14 24 9 9 26 2 31 -12z m497 -32 c0 -16 -6 -26 -18 -28 -19 -4
-32 20 -23 44 9 25 41 13 41 -16z m-2915 -31 c0 -5 -7 -9 -15 -9 -8 0 -15 7
-15 15 0 9 6 12 15 9 8 -4 15 -10 15 -15z m3071 -92 c-1 -12 -15 -9 -19 4 -3
6 1 10 8 8 6 -3 11 -8 11 -12z m-3103 -29 c5 -7 13 -23 17 -36 13 -44 -51 -82
-83 -50 -7 7 -12 26 -12 43 0 17 5 36 12 43 16 16 53 15 66 0z m3050 -25 c4
-29 -30 -49 -48 -28 -6 8 -9 23 -5 35 9 28 49 23 53 -7z m169 -159 c31 -8 41
-59 17 -85 -23 -26 -52 -21 -77 13 -19 25 -19 28 -3 52 17 27 26 30 63 20z
m-387 -64 c11 -11 20 -27 20 -35 0 -19 -35 -55 -54 -55 -21 0 -56 48 -49 68
17 46 50 55 83 22z m-3063 -7 c10 -30 53 -83 67 -83 8 0 19 -6 26 -14 9 -12 4
-20 -30 -41 -28 -18 -48 -41 -61 -71 -11 -24 -22 -44 -25 -44 -2 0 -18 22 -34
49 -18 29 -43 54 -60 61 -17 7 -30 16 -30 20 0 10 122 137 133 139 4 0 10 -7
14 -16z m310 -49 c-3 -3 -12 -4 -19 -1 -8 3 -5 6 6 6 11 1 17 -2 13 -5z m2933
-64 c0 -13 -7 -20 -20 -20 -13 0 -20 7 -20 20 0 13 7 20 20 20 13 0 20 -7 20
-20z m-3130 -104 c0 -15 -14 -35 -21 -30 -15 9 -10 34 6 34 8 0 15 -2 15 -4z
m-532 -68 c-2 -18 -7 -33 -13 -33 -5 0 -11 15 -13 33 -3 24 1 32 13 32 12 0
16 -8 13 -32z m3452 12 c18 -35 3 -60 -35 -60 -37 0 -52 23 -40 60 9 28 60 27
75 0z m238 -48 c2 -7 -6 -12 -17 -12 -21 0 -27 11 -14 24 9 9 26 2 31 -12z
m-3550 -24 c7 -7 12 -25 12 -40 0 -21 -6 -29 -25 -34 -15 -4 -32 -1 -40 6 -15
13 -21 61 -8 73 11 11 48 8 61 -5z m552 -58 c0 -10 -7 -23 -15 -30 -12 -10
-15 -7 -21 14 -9 38 2 62 21 46 8 -7 15 -20 15 -30z m2912 -90 c15 -29 16 -37
4 -55 -20 -30 -63 -31 -86 -3 -25 30 -25 53 1 79 29 29 61 21 81 -21z m-3146
-65 c31 -31 28 -61 -8 -88 -25 -19 -28 -19 -52 -3 -38 24 -44 61 -15 92 29 30
44 30 75 -1z m-606 -20 c0 -16 -6 -25 -15 -25 -16 0 -19 9 -9 34 9 25 24 19
24 -9z m3519 -9 c9 -10 8 -16 -4 -26 -19 -16 -41 1 -32 24 8 20 21 20 36 2z
m316 -26 c3 -5 1 -10 -4 -10 -6 0 -11 5 -11 10 0 6 2 10 4 10 3 0 8 -4 11 -10z
m-3651 -122 c49 -74 76 -102 140 -142 72 -47 76 -55 40 -80 -60 -43 -173 -159
-195 -202 -13 -24 -27 -44 -30 -44 -3 0 -13 17 -23 38 -35 72 -89 133 -158
179 -38 25 -67 50 -66 55 2 6 26 23 53 38 36 20 56 39 70 68 11 23 35 52 52
65 18 13 42 36 54 50 11 15 22 27 24 27 3 0 20 -24 39 -52z m3621 2 c11 -17
-5 -32 -21 -19 -7 6 -11 15 -8 20 7 12 21 11 29 -1z m-2945 -15 c0 -8 -4 -15
-9 -15 -13 0 -22 16 -14 24 11 11 23 6 23 -9z m2880 -84 c5 -11 10 -28 10 -37
0 -22 -28 -54 -48 -54 -23 0 -52 30 -52 53 0 49 69 77 90 38z m-3022 -20 c4
-29 -9 -44 -31 -35 -17 6 -23 44 -10 58 14 14 38 0 41 -23z m-908 -22 c0 -6
-4 -7 -10 -4 -5 3 -10 11 -10 16 0 6 5 7 10 4 6 -3 10 -11 10 -16z m3770 -121
c0 -13 -23 -5 -28 10 -2 7 2 10 12 6 9 -3 16 -11 16 -16z m471 -130 c21 -50
118 -193 205 -303 95 -119 183 -208 267 -272 83 -62 87 -66 52 -53 -123 46
-331 212 -432 345 -59 78 -123 232 -123 297 0 28 16 21 31 -14z m-3661 -28 c0
-5 -2 -10 -4 -10 -3 0 -8 5 -11 10 -3 6 -1 10 4 10 6 0 11 -4 11 -10z m3410
-51 c0 -5 -7 -9 -15 -9 -15 0 -20 12 -9 23 8 8 24 -1 24 -14z m-2923 -20 c35
-6 73 -19 86 -29 22 -18 22 -19 2 -26 -20 -8 -294 19 -327 31 -31 12 -20 24
25 28 89 8 153 7 214 -4z m-617 -20 c0 -5 -4 -9 -10 -9 -5 0 -10 7 -10 16 0 8
5 12 10 9 6 -3 10 -10 10 -16z m3327 -75 c-3 -3 -12 -4 -19 -1 -8 3 -5 6 6 6
11 1 17 -2 13 -5z m-47 -11 c-8 -3 -27 -12 -42 -20 -18 -8 -28 -10 -28 -3 0
13 37 29 65 29 14 -1 16 -2 5 -6z m-2786 -12 c17 -7 17 -9 -9 -29 -45 -35 -67
-25 -49 22 7 17 27 19 58 7z m-870 -55 c51 -47 45 -84 -21 -128 -39 -25 -63
-23 -106 13 -48 39 -48 70 -3 115 45 45 82 45 130 0z m314 -29 c3 -21 -1 -27
-17 -27 -21 0 -37 32 -26 50 12 20 40 5 43 -23z m3466 -5 c9 -15 -6 -52 -20
-52 -18 0 -28 24 -20 45 6 16 32 20 40 7z m-2694 -12 c29 -18 -14 -43 -97 -56
-90 -15 -191 -18 -178 -6 19 17 101 44 170 57 88 17 87 17 105 5z m3005 0 c9
-14 -13 -50 -30 -50 -15 0 -21 40 -8 53 10 10 31 8 38 -3z m-195 -134 c0 -22
-27 -27 -33 -5 -4 14 0 19 14 19 10 0 19 -6 19 -14z m-3255 -6 c3 -5 1 -10 -4
-10 -6 0 -11 5 -11 10 0 6 2 10 4 10 3 0 8 -4 11 -10z m5505 -14 c0 -2 3 -11
6 -20 4 -11 0 -16 -14 -16 -21 0 -46 23 -35 33 7 8 43 10 43 3z m-2124 -14
c25 -16 35 -51 22 -72 -16 -24 -35 -26 -60 -3 -22 20 -23 46 -2 67 17 18 24
19 40 8z m-484 -57 c4 -27 3 -54 -2 -60 -5 -6 -5 -17 0 -25 9 -15 4 -30 -10
-30 -4 0 -17 15 -29 33 -11 17 -27 41 -35 52 -27 38 -28 61 -4 73 13 6 34 10
48 9 22 -2 26 -8 32 -52z m732 6 c70 -67 99 -89 186 -144 222 -140 277 -179
342 -243 206 -200 298 -486 259 -804 -32 -263 -169 -569 -336 -750 -82 -89
-211 -207 -275 -249 -73 -50 -218 -126 -225 -119 -3 3 -2 53 3 110 12 141 -2
327 -33 451 -49 191 -77 260 -178 437 -36 62 -154 202 -235 278 -91 85 -273
208 -418 281 -65 34 -123 67 -129 75 -5 7 -27 19 -48 27 -30 10 -34 15 -20 20
10 3 28 -1 41 -9 12 -8 22 -10 22 -4 0 6 -6 12 -12 15 -9 3 -4 13 14 31 14 14
29 35 33 46 3 11 15 20 25 20 11 0 24 9 30 20 6 11 14 19 18 18 14 -3 87 15
100 25 7 5 11 19 10 31 -2 16 3 22 21 24 13 2 26 12 28 23 4 15 15 19 52 20
89 1 121 6 139 22 12 11 36 17 64 17 42 0 46 2 64 40 14 28 25 40 41 40 12 0
24 4 27 9 3 4 22 8 43 7 31 -1 38 -5 38 -21 0 -14 -7 -20 -25 -22 -47 -2 -50
-3 -50 -10 0 -5 11 -21 25 -37 14 -16 25 -33 25 -38 0 -15 21 3 30 26 8 18 9
19 9 2 1 -16 3 -17 17 -5 14 12 16 11 13 -6 -2 -10 -15 -22 -29 -26 -22 -6
-22 -7 -4 -8 27 -1 74 35 74 57 0 15 -2 15 -10 2 -7 -12 -12 -12 -21 -3 -10
10 -7 14 14 22 25 10 45 46 33 59 -4 3 -9 -3 -12 -14 -4 -16 -12 -19 -40 -16
-30 4 -34 7 -32 32 2 24 5 27 19 19 29 -15 49 -11 49 11 0 11 -4 20 -10 20
-17 0 -11 25 11 44 17 14 20 25 16 57 -5 36 -2 41 23 41 3 1 21 -2 40 -6 27
-4 31 -3 18 5 -20 11 -23 50 -8 80 8 13 21 19 46 19 30 0 46 -9 88 -49z
m-3129 10 c3 -5 0 -13 -6 -17 -14 -8 -171 -64 -181 -64 -47 0 106 89 154 90
15 0 29 -4 33 -9z m2585 -76 c0 -18 -5 -25 -20 -25 -20 0 -28 28 -13 43 15 16
33 6 33 -18z m-3574 -16 c17 -19 17 -23 3 -47 -18 -33 -44 -39 -70 -16 -21 19
-24 36 -9 65 14 25 52 24 76 -2z m582 -97 c2 -7 -3 -12 -12 -12 -9 0 -16 7
-16 16 0 17 22 14 28 -4z m412 8 c0 -5 -4 -10 -9 -10 -6 0 -13 5 -16 10 -3 6
1 10 9 10 9 0 16 -4 16 -10z m2570 -25 c0 -8 -7 -15 -15 -15 -8 0 -15 7 -15
15 0 8 7 15 15 15 8 0 15 -7 15 -15z m125 -5 c-3 -5 -10 -10 -16 -10 -5 0 -9
5 -9 10 0 6 7 10 16 10 8 0 12 -4 9 -10z m-555 -55 c10 -13 9 -15 -9 -15 -12
0 -21 6 -21 15 0 8 4 15 9 15 5 0 14 -7 21 -15z m-3316 -31 c6 -16 -9 -44 -24
-44 -12 0 -20 28 -14 45 8 20 30 19 38 -1z m1025 -56 c-5 -10 -14 -18 -19 -18
-14 0 -12 34 2 48 17 17 30 -6 17 -30z m-678 -68 c37 -47 68 -92 68 -101 1 -8
-26 -48 -59 -87 -54 -64 -65 -72 -95 -72 -29 0 -43 9 -82 52 -27 29 -62 67
-80 84 l-32 32 42 41 c23 22 63 64 89 92 29 30 55 49 65 47 9 -2 47 -41 84
-88z m2979 66 c0 -8 -7 -16 -15 -20 -10 -4 -15 1 -15 14 0 11 7 20 15 20 8 0
15 -6 15 -14z m-3397 -12 c9 -10 -4 -34 -18 -34 -17 0 -28 17 -20 30 7 11 28
13 38 4z m1387 -40 c12 -22 12 -29 -1 -52 -26 -48 -89 -37 -89 15 0 63 63 89
90 37z m1835 -4 c4 -6 -7 -10 -24 -10 -17 0 -31 5 -31 10 0 6 11 10 24 10 14
0 28 -4 31 -10z m3325 -60 c0 -5 -4 -10 -10 -10 -5 0 -10 5 -10 10 0 6 5 10
10 10 6 0 10 -4 10 -10z m-5498 -57 c26 -26 48 -53 48 -59 0 -6 -27 -39 -59
-72 -55 -55 -60 -58 -65 -37 -3 12 -26 39 -51 59 -42 34 -44 39 -32 61 12 22
92 95 105 95 4 0 28 -21 54 -47z m452 -120 c8 -19 -8 -38 -23 -29 -16 10 -13
46 3 46 8 0 17 -8 20 -17z m-750 -64 c-3 -5 -10 -7 -15 -3 -5 3 -7 10 -3 15 3
5 10 7 15 3 5 -3 7 -10 3 -15z m558 -56 c37 -44 29 -86 -19 -98 -50 -12 -83
56 -46 97 20 23 46 23 65 1z m138 -53 c0 -5 -4 -10 -10 -10 -5 0 -10 5 -10 10
0 6 5 10 10 10 6 0 10 -4 10 -10z m-1271 -71 c36 -39 33 -95 -6 -110 -33 -12
-60 10 -69 56 -12 65 34 98 75 54z m1006 -94 c31 -30 32 -69 3 -89 -53 -38
-111 -7 -106 57 1 20 4 35 6 33 2 -2 15 2 30 10 36 18 39 18 67 -11z m195 -5
c0 -5 -4 -10 -10 -10 -5 0 -10 5 -10 10 0 6 5 10 10 10 6 0 10 -4 10 -10z
m-565 -30 c-3 -5 -10 -10 -16 -10 -5 0 -9 5 -9 10 0 6 7 10 16 10 8 0 12 -4 9
-10z m-827 -74 c-2 -12 -10 -21 -18 -21 -16 0 -25 28 -16 52 9 23 38 -4 34
-31z m887 -28 c18 -104 44 -135 148 -178 85 -35 84 -56 -3 -82 -94 -29 -117
-57 -149 -175 -17 -64 -42 -58 -64 15 -9 32 -17 62 -17 67 0 5 -14 24 -32 42
-23 23 -53 40 -100 54 -43 12 -68 25 -68 34 0 8 37 32 85 55 71 34 88 47 108
83 14 23 28 55 32 72 15 67 50 74 60 13z m-293 -3 c6 -29 -8 -45 -38 -45 -38
0 -43 64 -6 73 27 5 40 -2 44 -28z m-234 -117 c7 -7 12 -26 12 -44 0 -24 -5
-33 -22 -37 -45 -12 -86 44 -58 78 15 18 51 20 68 3z m1008 -133 c16 -65 -30
-104 -82 -70 -21 13 -25 22 -19 43 10 40 24 52 61 52 28 0 35 -5 40 -25z m147
-31 c12 -12 -6 -34 -29 -34 -23 0 -32 18 -17 33 8 9 38 9 46 1z m-328 -94 c-3
-5 -10 -10 -16 -10 -5 0 -9 5 -9 10 0 6 7 10 16 10 8 0 12 -4 9 -10z m394 -47
c-1 -16 1 -35 4 -43 3 -8 10 -49 15 -90 6 -41 21 -129 35 -195 36 -169 113
-655 124 -777 4 -43 2 -58 -7 -58 -24 0 -245 112 -325 165 -221 144 -313 207
-340 232 -17 15 -52 46 -80 68 -91 73 -141 125 -122 125 9 0 17 4 17 9 0 5 21
14 48 21 28 8 40 15 30 17 -22 5 -24 33 -3 33 8 0 15 -4 15 -10 0 -5 12 -10
26 -10 19 0 25 4 20 15 -8 21 3 45 22 45 8 0 13 3 9 6 -7 7 58 54 73 54 6 0
19 8 30 17 11 10 26 18 33 19 31 2 77 17 77 25 0 5 7 9 16 9 14 0 14 3 4 15
-10 13 -9 15 8 15 12 0 22 8 24 17 2 13 14 18 48 20 79 3 77 2 58 17 -10 7
-18 21 -18 30 0 10 -4 14 -10 11 -5 -3 -10 -1 -10 4 0 6 6 11 13 11 7 0 20 9
29 19 16 18 16 20 0 25 -10 3 -7 5 8 4 61 -1 72 2 67 17 -4 8 -2 17 4 21 6 3
9 16 8 27 -2 38 1 47 16 47 8 0 15 8 15 18 0 17 8 32 17 32 3 0 4 -12 2 -27z
m-959 -74 c0 -31 -18 -59 -35 -53 -18 7 -20 60 -2 67 25 11 37 6 37 -14z m112
-6 c10 -9 18 -23 18 -31 0 -21 -30 -52 -50 -52 -39 0 -53 49 -23 82 20 22 31
23 55 1z m272 -169 c22 -21 31 -64 19 -83 -5 -9 -22 -22 -36 -29 -22 -11 -31
-10 -57 3 -16 8 -30 19 -31 23 0 4 -2 17 -3 28 -6 53 72 95 108 58z m-124
-154 c0 -5 -7 -10 -15 -10 -8 0 -15 5 -15 10 0 6 7 10 15 10 8 0 15 -4 15 -10z
m3074 -1373 c9 -15 7 -21 -8 -33 -44 -32 -85 -2 -50 37 21 23 42 22 58 -4z"/>
<path d="M5992 3290 c0 -14 2 -19 5 -12 2 6 2 18 0 25 -3 6 -5 1 -5 -13z"/>
<path d="M6016 3195 c4 -8 10 -15 15 -15 5 0 9 7 9 15 0 8 -7 15 -15 15 -9 0
-12 -6 -9 -15z"/>
<path d="M6054 3145 c11 -8 25 -15 30 -15 6 0 2 7 -8 15 -11 8 -25 15 -30 15
-6 0 -2 -7 8 -15z"/>
<path d="M5710 3120 c-11 -8 -7 -9 15 -4 37 8 45 14 19 14 -10 0 -26 -5 -34
-10z"/>
<path d="M3251 1784 c0 -11 3 -14 6 -6 3 7 2 16 -1 19 -3 4 -6 -2 -5 -13z"/>
<path d="M4745 5336 c-27 -18 -77 -62 -111 -98 -66 -70 -158 -187 -153 -192 2
-2 31 -17 64 -34 96 -49 131 -73 194 -136 71 -69 121 -140 121 -173 0 -46 19
-22 24 32 3 30 8 79 11 108 7 64 -8 236 -30 342 -18 84 -52 185 -63 184 -4 0
-29 -15 -57 -33z"/>
<path d="M6905 4717 c-23 -35 -16 -50 14 -28 19 14 22 22 14 36 -10 17 -12 16
-28 -8z"/>
<path d="M7171 4584 c0 -11 3 -14 6 -6 3 7 2 16 -1 19 -3 4 -6 -2 -5 -13z"/>
<path d="M1400 4430 c-6 -11 -8 -20 -6 -20 3 0 10 9 16 20 6 11 8 20 6 20 -3
0 -10 -9 -16 -20z"/>
<path d="M4326 4406 c-53 -20 -105 -63 -143 -120 -42 -62 -56 -114 -56 -204 1
-89 34 -164 96 -217 91 -78 194 -64 286 41 145 165 131 406 -29 489 -44 23
-109 27 -154 11z m130 -67 c65 -40 54 -137 -18 -154 -68 -17 -108 99 -52 150
32 30 29 30 70 4z"/>
<path d="M3301 4399 c-52 -21 -85 -54 -114 -117 -26 -57 -30 -75 -31 -161 0
-85 3 -103 27 -156 94 -201 251 -190 317 23 53 169 -7 367 -123 411 -33 13
-44 13 -76 0z m119 -59 c27 -14 41 -64 28 -100 -18 -54 -64 -65 -103 -25 -34
33 -33 78 1 110 29 27 45 30 74 15z"/>
<path d="M1286 4134 c-15 -24 -31 -44 -36 -44 -11 0 -20 27 -15 43 3 7 -8 18
-26 26 -35 16 -49 6 -49 -37 0 -13 -5 -32 -10 -42 -7 -13 -7 -21 0 -25 6 -3
15 6 20 20 14 37 45 30 46 -10 3 -61 -18 -84 -46 -50 -11 13 -16 12 -42 -6
l-29 -21 -25 23 c-27 26 -31 51 -9 69 18 15 20 53 3 48 -15 -5 -32 -64 -69
-232 -33 -155 -35 -210 -4 -137 17 40 19 42 32 25 15 -21 18 -90 3 -99 -5 -3
-21 2 -35 11 -14 9 -28 14 -31 11 -19 -18 -54 -361 -53 -510 0 -130 32 -362
49 -362 9 0 18 24 27 75 24 129 26 131 35 51 9 -88 20 -104 46 -71 15 19 22
21 40 11 11 -6 32 -11 45 -11 28 0 37 -20 37 -90 0 -57 17 -118 41 -148 10
-13 16 -29 14 -35 -3 -7 5 -23 16 -37 l21 -25 -6 30 c-3 17 -17 91 -31 165
-72 375 -48 994 50 1334 15 48 25 90 23 92 -2 1 -16 -17 -32 -42z m-126 -1040
c0 -22 -30 -64 -45 -64 -19 0 -45 28 -45 49 0 12 12 22 33 28 37 11 57 7 57
-13z"/>
<path d="M7682 3980 c-28 -26 -52 -54 -52 -61 0 -8 26 12 57 43 70 71 67 84
-5 18z"/>
<path d="M912 3998 c-7 -7 -12 -25 -12 -40 0 -16 -7 -44 -14 -63 -17 -40 -43
-46 -71 -15 -19 21 -50 26 -60 10 -11 -18 -33 -10 -42 15 -8 24 -10 24 -30 10
-37 -26 -76 -213 -76 -360 1 -205 49 -564 102 -760 10 -38 35 -130 55 -204 36
-131 82 -254 71 -186 -4 19 0 38 9 50 9 11 16 41 16 67 0 26 4 49 9 52 14 9
41 -4 41 -19 0 -13 50 -59 56 -52 2 1 -11 45 -27 97 -108 335 -129 488 -110
797 13 210 25 289 87 547 15 64 14 72 -4 54z"/>
<path d="M7060 3965 c0 -5 11 -23 25 -40 13 -16 24 -25 24 -20 0 6 -11 24 -24
40 -14 17 -25 26 -25 20z"/>
<path d="M3664 3831 c-32 -14 -36 -26 -21 -63 21 -49 49 -70 88 -66 27 2 38
11 56 43 26 47 29 71 8 79 -30 11 -111 15 -131 7z"/>
<path d="M7440 3680 c6 -11 13 -20 16 -20 2 0 0 9 -6 20 -6 11 -13 20 -16 20
-2 0 0 -9 6 -20z"/>
<path d="M1049 2783 c-5 -35 40 -274 61 -328 l12 -30 10 25 c5 14 8 48 6 75
l-3 50 34 5 c33 5 35 7 37 48 2 35 -2 45 -22 58 -21 14 -25 14 -38 1 -10 -10
-11 -18 -4 -25 11 -11 2 -52 -13 -52 -5 0 -9 14 -9 30 0 17 -14 57 -30 90 -29
57 -39 70 -41 53z"/>
<path d="M976 2429 c-3 -17 -6 -44 -6 -59 0 -21 -7 -30 -30 -40 -16 -7 -41 -9
-55 -6 -19 5 -25 2 -25 -9 0 -28 180 -400 251 -521 87 -146 225 -340 300 -421
31 -34 74 -88 95 -120 44 -68 404 -427 464 -463 93 -56 219 -135 280 -176 116
-76 149 -87 250 -79 64 5 93 3 108 -6 17 -11 37 -9 129 14 127 31 294 85 308
98 6 6 -1 9 -20 8 -29 -1 -237 25 -281 36 -11 2 -38 18 -59 35 -21 16 -74 55
-119 85 -44 30 -110 79 -146 110 -36 30 -105 88 -155 129 -219 182 -559 582
-696 821 -81 142 -211 438 -239 543 -12 47 -27 54 -36 18 -4 -17 1 -31 16 -46
17 -17 20 -29 15 -59 -5 -28 -2 -41 9 -51 27 -21 20 -65 -15 -95 -18 -14 -39
-25 -48 -23 -25 5 -26 56 -1 83 20 21 20 25 6 58 -8 19 -12 38 -9 40 3 3 1 12
-4 21 -8 14 -12 14 -38 0 -27 -14 -31 -13 -58 6 -16 12 -31 20 -33 17 -3 -2 7
-44 22 -93 43 -147 55 -196 50 -201 -5 -5 -44 37 -74 79 -8 10 -40 78 -73 150
-32 72 -63 136 -67 140 -6 6 -12 -4 -16 -23z m767 -1100 c12 -6 92 -82 177
-168 85 -86 182 -179 215 -206 104 -86 230 -198 238 -212 5 -8 -29 5 -75 28
-157 79 -286 178 -451 348 -103 105 -137 156 -137 201 0 23 3 24 33 9z"/>
<path d="M5322 2290 c-17 -27 -15 -101 3 -127 8 -12 32 -31 52 -44 21 -12 62
-38 91 -58 62 -41 88 -36 86 17 -2 38 -60 135 -114 191 -46 47 -96 56 -118 21z"/>
<path d="M1330 1277 c-1 -24 31 -76 50 -82 36 -12 34 2 -9 47 -22 24 -41 39
-41 35z"/>
<path d="M1542 1013 c18 -26 56 -62 83 -81 47 -32 45 -29 -30 47 -44 44 -81
81 -83 81 -2 0 11 -21 30 -47z"/>
<path d="M1715 849 c22 -24 41 -46 43 -48 1 -2 2 2 2 10 0 8 -19 29 -43 48
l-42 34 40 -44z"/>
<path d="M2204 305 c-21 -33 -16 -37 26 -22 69 24 81 47 25 47 -26 0 -39 -6
-51 -25z"/>
<path d="M5160 250 c-21 -7 -21 -8 -5 -9 11 0 27 4 35 9 18 11 5 11 -30 0z"/>
<path d="M4968 203 c6 -2 18 -2 25 0 6 3 1 5 -13 5 -14 0 -19 -2 -12 -5z"/>
<path d="M5500 30 c20 -13 47 -13 55 0 4 6 -9 10 -32 10 -28 0 -34 -3 -23 -10z"/>
</g>
</svg>
